<mxfile host="Electron" agent="Mozilla/5.0 (X11; Linux x86_64) AppleWebKit/537.36 (KHTML, like Gecko) draw.io/24.7.17 Chrome/128.0.6613.36 Electron/32.0.1 Safari/537.36" version="24.7.17">
  <diagram name="Page-1" id="ML8d5t-c3MVNyDWE9D2q">
    <mxGraphModel dx="1154" dy="685" grid="1" gridSize="10" guides="1" tooltips="1" connect="1" arrows="1" fold="1" page="1" pageScale="1" pageWidth="850" pageHeight="1100" math="1" shadow="0">
      <root>
        <mxCell id="0" />
        <mxCell id="1" parent="0" />
        <mxCell id="0ecRHKAedGHaM-0Dt9li-2" value="" style="rounded=0;whiteSpace=wrap;html=1;fillColor=none;strokeWidth=2;" vertex="1" parent="1">
          <mxGeometry x="120" y="160" width="80" height="40" as="geometry" />
        </mxCell>
        <mxCell id="0ecRHKAedGHaM-0Dt9li-3" value="" style="endArrow=none;html=1;rounded=0;exitX=0.5;exitY=1;exitDx=0;exitDy=0;strokeWidth=2;" edge="1" parent="1" source="0ecRHKAedGHaM-0Dt9li-2">
          <mxGeometry width="50" height="50" relative="1" as="geometry">
            <mxPoint x="110" y="210" as="sourcePoint" />
            <mxPoint x="160" y="160" as="targetPoint" />
          </mxGeometry>
        </mxCell>
        <mxCell id="0ecRHKAedGHaM-0Dt9li-4" value="" style="endArrow=blockThin;html=1;rounded=0;endFill=1;" edge="1" parent="1">
          <mxGeometry width="50" height="50" relative="1" as="geometry">
            <mxPoint x="130" y="190" as="sourcePoint" />
            <mxPoint x="130" y="170" as="targetPoint" />
          </mxGeometry>
        </mxCell>
        <mxCell id="0ecRHKAedGHaM-0Dt9li-5" value="&lt;font style=&quot;font-size: 16px;&quot;&gt;$$L$$&lt;/font&gt;" style="text;html=1;align=center;verticalAlign=middle;whiteSpace=wrap;rounded=0;" vertex="1" parent="1">
          <mxGeometry x="115" y="165" width="60" height="30" as="geometry" />
        </mxCell>
        <mxCell id="0ecRHKAedGHaM-0Dt9li-6" value="&lt;font style=&quot;font-size: 16px;&quot;&gt;Hold&lt;/font&gt;" style="text;html=1;align=center;verticalAlign=middle;whiteSpace=wrap;rounded=0;" vertex="1" parent="1">
          <mxGeometry x="150" y="165" width="60" height="30" as="geometry" />
        </mxCell>
        <mxCell id="0ecRHKAedGHaM-0Dt9li-7" value="" style="rounded=0;whiteSpace=wrap;html=1;fillColor=none;strokeWidth=2;" vertex="1" parent="1">
          <mxGeometry x="272" y="160" width="80" height="40" as="geometry" />
        </mxCell>
        <mxCell id="0ecRHKAedGHaM-0Dt9li-8" value="" style="endArrow=none;html=1;rounded=0;exitX=0.5;exitY=1;exitDx=0;exitDy=0;strokeWidth=2;" edge="1" parent="1" source="0ecRHKAedGHaM-0Dt9li-7">
          <mxGeometry width="50" height="50" relative="1" as="geometry">
            <mxPoint x="262" y="210" as="sourcePoint" />
            <mxPoint x="312" y="160" as="targetPoint" />
          </mxGeometry>
        </mxCell>
        <mxCell id="0ecRHKAedGHaM-0Dt9li-9" value="" style="endArrow=blockThin;html=1;rounded=0;endFill=1;" edge="1" parent="1">
          <mxGeometry width="50" height="50" relative="1" as="geometry">
            <mxPoint x="282" y="190" as="sourcePoint" />
            <mxPoint x="282" y="170" as="targetPoint" />
          </mxGeometry>
        </mxCell>
        <mxCell id="0ecRHKAedGHaM-0Dt9li-10" value="&lt;font style=&quot;font-size: 16px;&quot;&gt;$$M$$&lt;/font&gt;" style="text;html=1;align=center;verticalAlign=middle;whiteSpace=wrap;rounded=0;" vertex="1" parent="1">
          <mxGeometry x="267" y="165" width="60" height="30" as="geometry" />
        </mxCell>
        <mxCell id="0ecRHKAedGHaM-0Dt9li-11" value="&lt;font style=&quot;font-size: 16px;&quot;&gt;Hold&lt;/font&gt;" style="text;html=1;align=center;verticalAlign=middle;whiteSpace=wrap;rounded=0;" vertex="1" parent="1">
          <mxGeometry x="302" y="165" width="60" height="30" as="geometry" />
        </mxCell>
        <mxCell id="0ecRHKAedGHaM-0Dt9li-12" value="" style="endArrow=blockThin;html=1;rounded=0;endFill=1;strokeWidth=2;" edge="1" parent="1">
          <mxGeometry width="50" height="50" relative="1" as="geometry">
            <mxPoint x="201" y="180" as="sourcePoint" />
            <mxPoint x="271" y="180.00000000000006" as="targetPoint" />
          </mxGeometry>
        </mxCell>
        <mxCell id="0ecRHKAedGHaM-0Dt9li-13" value="" style="endArrow=blockThin;html=1;rounded=0;endFill=1;strokeWidth=2;" edge="1" parent="1">
          <mxGeometry width="50" height="50" relative="1" as="geometry">
            <mxPoint x="80" y="180" as="sourcePoint" />
            <mxPoint x="120" y="179.90000000000006" as="targetPoint" />
          </mxGeometry>
        </mxCell>
        <mxCell id="0ecRHKAedGHaM-0Dt9li-14" value="" style="endArrow=blockThin;html=1;rounded=0;endFill=1;strokeWidth=2;" edge="1" parent="1">
          <mxGeometry width="50" height="50" relative="1" as="geometry">
            <mxPoint x="352" y="179.9" as="sourcePoint" />
            <mxPoint x="400" y="180" as="targetPoint" />
          </mxGeometry>
        </mxCell>
        <mxCell id="0ecRHKAedGHaM-0Dt9li-15" value="" style="rounded=0;whiteSpace=wrap;html=1;fillColor=none;strokeWidth=2;" vertex="1" parent="1">
          <mxGeometry x="190" y="59" width="80" height="40" as="geometry" />
        </mxCell>
        <mxCell id="0ecRHKAedGHaM-0Dt9li-16" value="" style="endArrow=none;html=1;rounded=0;exitX=0.5;exitY=1;exitDx=0;exitDy=0;strokeWidth=2;" edge="1" parent="1" source="0ecRHKAedGHaM-0Dt9li-15">
          <mxGeometry width="50" height="50" relative="1" as="geometry">
            <mxPoint x="180" y="109" as="sourcePoint" />
            <mxPoint x="230" y="59" as="targetPoint" />
          </mxGeometry>
        </mxCell>
        <mxCell id="0ecRHKAedGHaM-0Dt9li-17" value="" style="endArrow=blockThin;html=1;rounded=0;endFill=1;" edge="1" parent="1">
          <mxGeometry width="50" height="50" relative="1" as="geometry">
            <mxPoint x="197" y="89" as="sourcePoint" />
            <mxPoint x="197" y="69" as="targetPoint" />
          </mxGeometry>
        </mxCell>
        <mxCell id="0ecRHKAedGHaM-0Dt9li-18" value="&lt;font style=&quot;font-size: 14px;&quot;&gt;$$LM$$&lt;/font&gt;" style="text;html=1;align=center;verticalAlign=middle;whiteSpace=wrap;rounded=0;" vertex="1" parent="1">
          <mxGeometry x="183" y="64" width="60" height="30" as="geometry" />
        </mxCell>
        <mxCell id="0ecRHKAedGHaM-0Dt9li-19" value="&lt;font style=&quot;font-size: 16px;&quot;&gt;Hold&lt;/font&gt;" style="text;html=1;align=center;verticalAlign=middle;whiteSpace=wrap;rounded=0;" vertex="1" parent="1">
          <mxGeometry x="220" y="64" width="60" height="30" as="geometry" />
        </mxCell>
        <mxCell id="0ecRHKAedGHaM-0Dt9li-21" value="" style="endArrow=blockThin;html=1;rounded=0;endFill=1;strokeWidth=2;" edge="1" parent="1">
          <mxGeometry width="50" height="50" relative="1" as="geometry">
            <mxPoint x="271" y="79" as="sourcePoint" />
            <mxPoint x="400" y="79" as="targetPoint" />
          </mxGeometry>
        </mxCell>
        <mxCell id="0ecRHKAedGHaM-0Dt9li-22" value="" style="endArrow=blockThin;html=1;rounded=0;endFill=1;strokeWidth=2;" edge="1" parent="1">
          <mxGeometry width="50" height="50" relative="1" as="geometry">
            <mxPoint x="80" y="79" as="sourcePoint" />
            <mxPoint x="190" y="78.90000000000006" as="targetPoint" />
          </mxGeometry>
        </mxCell>
        <mxCell id="0ecRHKAedGHaM-0Dt9li-23" value="$$X(\xi)$$" style="text;html=1;align=center;verticalAlign=middle;whiteSpace=wrap;rounded=0;" vertex="1" parent="1">
          <mxGeometry x="50" y="49" width="60" height="30" as="geometry" />
        </mxCell>
        <mxCell id="0ecRHKAedGHaM-0Dt9li-24" value="$$X(\xi)$$" style="text;html=1;align=center;verticalAlign=middle;whiteSpace=wrap;rounded=0;" vertex="1" parent="1">
          <mxGeometry x="50" y="150" width="60" height="30" as="geometry" />
        </mxCell>
        <mxCell id="0ecRHKAedGHaM-0Dt9li-25" value="$$Y(\eta)$$" style="text;html=1;align=center;verticalAlign=middle;whiteSpace=wrap;rounded=0;" vertex="1" parent="1">
          <mxGeometry x="207" y="150" width="60" height="30" as="geometry" />
        </mxCell>
        <mxCell id="0ecRHKAedGHaM-0Dt9li-26" value="$$F_1(z)$$" style="text;html=1;align=center;verticalAlign=middle;whiteSpace=wrap;rounded=0;" vertex="1" parent="1">
          <mxGeometry x="362" y="49" width="60" height="30" as="geometry" />
        </mxCell>
        <mxCell id="0ecRHKAedGHaM-0Dt9li-27" value="$$F_2(z)$$" style="text;html=1;align=center;verticalAlign=middle;whiteSpace=wrap;rounded=0;" vertex="1" parent="1">
          <mxGeometry x="365" y="150" width="60" height="30" as="geometry" />
        </mxCell>
      </root>
    </mxGraphModel>
  </diagram>
</mxfile>
